<?xml version="1.0" encoding="UTF-8" standalone="no"?>
<!-- Created with Inkscape (http://www.inkscape.org/) -->

<svg
   xmlns:dc="http://purl.org/dc/elements/1.1/"
   xmlns:cc="http://creativecommons.org/ns#"
   xmlns:rdf="http://www.w3.org/1999/02/22-rdf-syntax-ns#"
   xmlns:svg="http://www.w3.org/2000/svg"
   xmlns="http://www.w3.org/2000/svg"
   xmlns:sodipodi="http://sodipodi.sourceforge.net/DTD/sodipodi-0.dtd"
   xmlns:inkscape="http://www.inkscape.org/namespaces/inkscape"
   width="179.2825mm"
   height="180.23682mm"
   viewBox="0 0 635.25296 638.63439"
   id="svg2"
   version="1.1"
   inkscape:version="0.91 r"
   sodipodi:docname="hecker.svg">
  <defs
     id="defs4" />
  <sodipodi:namedview
     id="base"
     pagecolor="#ffffff"
     bordercolor="#666666"
     borderopacity="1.0"
     inkscape:pageopacity="0.0"
     inkscape:pageshadow="2"
     inkscape:zoom="0.7"
     inkscape:cx="-26.594244"
     inkscape:cy="125.72225"
     inkscape:document-units="px"
     inkscape:current-layer="layer1"
     showgrid="false"
     fit-margin-top="0"
     fit-margin-left="0"
     fit-margin-right="0"
     fit-margin-bottom="0"
     inkscape:window-width="1920"
     inkscape:window-height="1173"
     inkscape:window-x="0"
     inkscape:window-y="0"
     inkscape:window-maximized="1" />
  <metadata
     id="metadata7">
    <rdf:RDF>
      <cc:Work
         rdf:about="">
        <dc:format>image/svg+xml</dc:format>
        <dc:type
           rdf:resource="http://purl.org/dc/dcmitype/StillImage" />
        <dc:title></dc:title>
      </cc:Work>
    </rdf:RDF>
  </metadata>
  <g
     inkscape:label="Layer 1"
     inkscape:groupmode="layer"
     id="layer1"
     transform="translate(-179.83162,-238.05078)">
    <path
       style="opacity:1;fill:#f5e71c;fill-opacity:1;stroke:#f5e71c;stroke-width:3.4000001;stroke-linecap:butt;stroke-linejoin:miter;stroke-miterlimit:4;stroke-dasharray:none;stroke-dashoffset:0;stroke-opacity:1"
       d="m 649.66657,864.52997 c -4.98621,-0.76428 -12.37907,-3.06628 -16.42857,-5.11554 c -9.69218,-4.90474 -23.27144,-18.93941 -29.50169,-30.4911 c -4.94082,-9.1609 -5.00158,-9.48854 -5.49082,-29.60767 c -0.45783,-18.82738 -0.25104,-20.85117 2.7734,-27.14286 c 4.41416,-9.18271 15.5199,-19.74738 32.59217,-31.0043 c 7.80618,-5.14715 16.18283,-11.7708 18.61478,-14.71923 c 5.82422,-7.06114 9.55365,-17.35887 10.73911,-29.65295 c 1.85367,-19.22399 5.61921,-22.22594 15.21988,-12.13353 c 13.64757,14.34657 12.74779,35.64701 -2.45758,58.17838 c -4.36224,6.46398 -7.7143,12.89255 -7.44902,14.28572 c 0.57616,3.02583 11.83522,3.82691 82.59704,5.87676 c 24.75,0.71696 46.125,1.77313 47.5,2.34704 c 2.68993,1.12275 3.44036,8.47022 1.22261,11.97066 c -0.91308,1.4412 -9.16651,2.43412 -31.76384,3.82132 c -16.79161,1.03079 -32.38318,2.58174 -34.64794,3.44656 c -3.87011,1.47783 -4.06457,1.93529 -3.23363,7.60725 c 0.48625,3.31917 1.28384,7.46076 1.77242,9.20353 c 0.68609,2.44729 -0.47703,4.56127 -5.10902,9.28571 c -6.32185,6.44804 -6.26411,6.13267 -3.42427,18.70382 c 0.78258,3.46428 -3.3e-4,4.86035 -5.70463,10.17245 c -6.21997,5.7923 -6.6117,6.59555 -6.6117,13.55755 c 0,7.19522 -0.14857,7.46348 -5.35714,9.67318 c -6.50985,2.76172 -41.97163,3.86477 -55.85156,1.73725 z"
       id="path4180"
       inkscape:connector-curvature="0" />
    <path
       style="opacity:1;fill:#f5e71c;fill-opacity:1;stroke:none;stroke-width:3.4000001;stroke-linecap:butt;stroke-linejoin:miter;stroke-miterlimit:4;stroke-dasharray:none;stroke-dashoffset:0;stroke-opacity:1"
       d="m 301.27934,861.90107 c -20.3322,-1.38104 -30.43052,-5.8302 -42.27813,-18.62703 c -13.4128,-14.48742 -18.10817,-28.39471 -18.10119,-53.61412 c 0.005,-19.77652 7.90029,-31.69016 31.86413,-48.08446 c 16.39048,-11.21315 24.70063,-18.80186 28.28655,-25.83084 c 1.53546,-3.00976 3.7894,-12.36009 5.00875,-20.7785 c 2.64145,-18.2367 4.06908,-20.44415 11.06448,-17.10827 c 3.56006,1.69767 5.95846,4.53716 8.88526,10.51933 c 3.43042,7.01152 3.99378,9.85989 3.90393,19.73835 c -0.12544,13.79213 -2.28466,20.20987 -11.16106,33.1735 c -7.76408,11.33912 -7.92633,14.96244 -0.73393,16.38934 c 2.75,0.54558 28.14285,1.70572 56.42857,2.57809 c 71.18436,2.19544 72.25407,2.35972 70.14266,10.77224 c -1.51575,6.03923 -5.49243,6.91098 -35.85282,7.85948 c -18.7551,0.58594 -29.69729,1.51207 -31.83959,2.69485 c -2.95528,1.63162 -3.24043,2.73757 -3.01447,11.69136 c 0.239,9.47041 0.0228,10.16596 -5.10338,16.42184 c -5.52754,6.74564 -5.47004,6.36818 -2.66411,17.48939 c 0.62893,2.49272 -0.70473,4.86732 -5.78255,10.29594 c -5.53233,5.9145 -6.60003,7.96466 -6.60003,12.67318 c 0,10.0598 -2.63856,11.62289 -20.71428,12.27119 c -8.64286,0.30997 -22.92532,0.0739 -31.73879,-0.52486 z"
       id="path4178"
       inkscape:connector-curvature="0" />
    <circle
       style="opacity:1;fill:#f5e71c;fill-opacity:1;stroke:none;stroke-width:3.4000001;stroke-linecap:butt;stroke-linejoin:miter;stroke-miterlimit:4;stroke-dasharray:none;stroke-dashoffset:0;stroke-opacity:1"
       id="path4184"
       cx="459.61942"
       cy="517.48645"
       r="272.23611" />
    <path
       style="opacity:1;fill:#000000;fill-opacity:1;stroke:none;stroke-width:3.4000001;stroke-linecap:butt;stroke-linejoin:miter;stroke-miterlimit:4;stroke-dasharray:none;stroke-dashoffset:0;stroke-opacity:1"
       d="m 451.58008,238.05078 c -61.825,0.30618 -122.69207,23.78357 -169.93833,63.42042 c -44.37051,37.00137 -78.66081,87.20449 -93.29944,143.36856 c -9.83155,39.24099 -10.60522,80.48071 -5.08126,120.42985 c 6.09562,38.16387 21.30387,74.73814 42.65026,106.86201 c 12.75703,19.26788 29.48418,35.3265 44.73598,52.51516 c 0.29767,6.05742 -12.03978,8.77366 -16.09286,14.33775 c -13.27075,11.02164 -26.13849,25.93191 -25.78134,44.22188 c -1.30541,21.78731 0.87822,45.72711 16.0073,62.77882 c 12.69887,15.49997 30.8256,29.0172 51.79279,28.35447 c 18.56075,0.63293 37.19966,0.34119 55.72384,-0.32019 c 9.04992,-3.97621 15.04929,-13.40813 15.62741,-23.16276 c 3.9743,-8.43871 13.84817,-15.15056 10.67589,-25.79094 c -1.2775,-10.73051 11.27565,-17.52564 8.69102,-28.86669 c -0.15378,-11.61091 16.69971,-2.55651 23.86542,-3.43978 c 31.68077,5.43947 64.25045,4.19341 95.97447,-0.24078 c 25.12027,-4.58951 49.52924,-12.97604 72.70461,-23.62313 c 4.53041,-2.15899 15.19157,-10.12687 8.91221,0.21004 c -4.87287,13.60103 -3.61028,28.4503 -3.47369,42.65131 c 1.42489,15.49575 10.43215,29.24478 20.11129,40.97056 c 9.51016,11.00907 21.94043,20.83844 36.99859,21.88696 c 18.76456,2.67133 37.84158,2.35683 56.7113,1.28743 c 10.76293,-1.0499 24.22007,-5.89258 25.47272,-18.38106 c 0.40491,-9.96257 11.48558,-16.01115 10.18371,-26.53752 c -2.42336,-10.97661 9.81131,-16.99212 8.75475,-27.66595 c 0.94145,-2.69882 -2.0961,-9.12899 2.17587,-8.62842 c 17.57814,-1.0699 35.25191,-1.11589 52.73929,-3.26105 c 13.31679,-2.26777 21.34352,-19.51446 13.68469,-30.95405 c -8.1967,-9.2509 -22.5129,-7.05391 -33.70369,-8.77886 c -30.14109,-0.95718 -60.33226,-0.32955 -90.45952,-1.8667 c 5.39534,-9.28612 10.65501,-19.10543 11.29779,-30.1468 c 2.0045,-14.63428 -1.68682,-29.30116 -8.56071,-42.17778 c -1.79813,-3.93161 4.62433,-6.97644 5.55219,-10.79644 c 57.70151,-89.64132 57.01794,-212.90156 -1.74799,-301.85383 C 669.13667,324.92375 631.88317,293.53641 590.50408,271.19558 c -42.63147,-22.10759 -91.0052,-32.96011 -138.924,-33.1448 z m 8.74609,20.38672 c 31.61436,-0.1058 63.44036,4.31142 93.00948,15.82527 c 47.70055,17.51264 87.20218,52.72873 116.29866,93.76498 c 12.91533,19.11821 24.61022,39.41671 32.05905,61.32186 l -38.78524,-12.15432 c -4.88432,-3.80378 -9.18836,-9.91281 -13.66993,-14.15685 c -31.7827,-27.3618 -73.04699,-40.56635 -113.58791,-48.33849 c -22.81735,-4.82679 -46.33153,-4.79012 -69.1409,-9.50238 c -25.43269,-7.28556 -49.7261,-18.00488 -74.69902,-26.68371 c -18.96225,-6.62954 -37.55616,-14.36204 -56.77752,-20.21692 c -5.84632,-0.31675 -9.15009,-4.81036 -2.04082,-6.74255 c 32.3306,-19.46681 69.40371,-30.86491 107.14058,-32.43304 c 6.72203,-0.43234 13.45715,-0.68437 20.19357,-0.68385 z m -153.16992,49.26367 c 51.13965,17.01407 101.48848,36.31096 152.39844,53.99219 c -4.12136,20.35146 -6.92219,41.44655 -2.43168,62.00858 c 3.42463,19.19158 11.87706,37.7967 26.56253,50.98356 c 20.03375,20.02016 49.74325,25.91385 77.12481,24.36435 c 35.63064,-1.17888 73.24541,-17.2886 91.37786,-49.35064 c 2.11175,-4.24943 6.4079,-14.08521 6.4079,-14.08521 l 51.37459,18.58327 c 4.57135,15.69947 5.3059,32.28572 6.71657,48.5212 c 2.69538,45.59008 -7.04116,91.84677 -27.13759,132.80824 c -5.73745,10.44633 -10.91819,21.83165 -20.0282,29.81118 c -10.83959,0.88112 -17.78027,11.60792 -18.5208,21.81522 c -2.8938,10.32587 -12.94484,16.33685 -19.99577,23.69938 c -35.61466,32.04621 -80.75623,51.81368 -127.37209,61.44687 c -15.40367,3.80914 -31.22476,5.94726 -47.11524,5.16939 c -0.043,-8.76271 1.2569,-19.72653 -7.48181,-24.96886 c -10.51934,-4.49028 -22.43756,-3.06673 -33.62366,-4.12294 c -23.6056,-1.37044 -47.28727,-0.88987 -70.87695,-2.3164 c -10.16357,0.91298 -10.366,-7.12985 -5.44866,-13.72617 c 3.5644,-12.43644 4.41993,-25.79665 2.77489,-38.60503 c -3.74762,-11.88244 -10.45463,-25.44442 -23.35977,-29.21659 c -10.93918,-3.87018 -21.84214,4.14089 -22.69287,15.32066 c -2.40685,10.08386 -2.48555,21.33128 -5.9982,30.76619 c -14.37716,-10.52944 -25.8521,-24.52991 -37.12148,-38.21978 c -16.37039,-21.54625 -28.64523,-46.0064 -38.76566,-71.02167 c -14.9348,-42.44613 -15.76591,-88.88308 -8.26919,-132.92398 c 5.70212,-33.60242 18.41534,-66.0045 37.95891,-93.99064 c 14.09422,-21.10794 30.69645,-40.70074 50.78423,-56.34481 c 4.21597,-3.50308 8.13419,-7.42369 12.75889,-10.39756 z m 5.50391,369.75977 c 11.61493,1.86885 15.28597,15.33216 16.42197,25.38819 c 1.73301,14.48719 -3.02409,29.24801 -12.79504,40.07118 c -8.04539,6.22949 -5.00529,19.09861 6.24356,16.57662 c 38.09537,2.22605 76.32053,1.65777 114.37931,4.41811 c 12.53853,-1.43695 6.26636,15.91032 -3.31935,13.11801 c -17.81296,0.89507 -35.70751,0.47391 -53.46378,2.02419 c -13.73651,1.72194 -4.38468,16.38765 -7.62447,24.61522 c -5.52545,6.46299 -14.72006,13.71756 -7.18181,22.44385 c 0.93932,10.86767 -16.2832,13.85555 -12.19148,26.16019 c -0.4496,11.2317 -13.6142,9.08074 -21.4192,9.36167 c -17.651,-0.65269 -36.09146,1.47379 -52.97982,-4.77017 c -13.77816,-5.79108 -23.90158,-18.05185 -31.13239,-30.77034 c -5.56256,-14.69277 -6.65855,-30.97183 -5.2113,-46.52557 c 3.37879,-18.66621 20.22048,-30.57695 35.20258,-40.06234 c 11.95221,-7.90913 25.37816,-17.19124 27.82723,-32.43605 c 2.50526,-9.41634 1.0779,-19.75048 5.1893,-28.70847 l 0.87833,-0.74295 z m 356.875,1.90039 c 15.56692,6.68717 19.61405,26.68194 15.74163,41.74977 c -2.11202,11.84405 -10.27528,20.86201 -16.67151,30.52774 c -6.7354,13.32903 12.59891,9.54891 19.98066,10.52913 c 34.24241,1.48609 68.57105,0.74163 102.77284,3.02471 c 12.03049,-2.80512 11.25438,16.7901 -0.23565,13.56072 c -18.81597,2.00445 -37.92661,0.88444 -56.59348,4.09577 c -14.52681,2.71516 1.3414,17.26188 -5.83242,24.1136 c -8.54247,5.22022 -10.65865,14.02672 -6.39663,22.79791 c 0.28113,10.89779 -18.24962,12.60626 -11.9598,25.19655 c -0.79109,10.60717 -14.87169,8.09736 -22.49269,9.82551 c -16.51946,1.55133 -33.38439,0.20219 -49.45173,-3.7884 c -18.72592,-8.23553 -33.271,-25.59711 -38.83209,-45.19668 c -1.66938,-12.02384 -1.47811,-24.37547 -0.15218,-36.42657 c 4.74532,-18.44213 22.34757,-28.96802 37.06138,-38.96368 c 14.60653,-7.49906 25.70633,-21.93719 27.35618,-38.49304 c 1.00026,-7.21394 -1.14602,-17.96703 5.70549,-22.55304 z"
       id="path4155"
       inkscape:connector-curvature="0"
       sodipodi:nodetypes="cccccccccccccccccccccccccccccccccccccccccccccccccccccccccccccccccccccccccccccccccccccccccccccccccccccccccccccccccc" />
    <path
       style="opacity:1;fill:#000000;fill-opacity:1;stroke:none;stroke-width:3.4000001;stroke-linecap:butt;stroke-linejoin:miter;stroke-miterlimit:4;stroke-dasharray:none;stroke-dashoffset:0;stroke-opacity:1"
       d="m 347.70958,492.93179 c -23.59194,-13.0494 -35.39426,-56.14458 -24.78398,-90.49666 c 6.9571,-22.52447 22.68051,-34.534 44.84925,-34.25582 c 13.11224,0.16453 20.10081,3.22332 29.31481,12.83063 c 11.91535,12.42397 15.50939,23.95207 15.64272,50.17492 c 0.10734,21.10978 -0.37638,24.28856 -5.29182,34.77575 c -6.24703,13.32814 -14.89381,22.53475 -25.21457,26.84703 c -8.59485,3.59116 -28.12144,3.66139 -34.51641,0.12415 z"
       id="path4157"
       inkscape:connector-curvature="0" />
    <path
       style="opacity:1;fill:#000000;fill-opacity:1;stroke:none;stroke-width:3.4000001;stroke-linecap:butt;stroke-linejoin:miter;stroke-miterlimit:4;stroke-dasharray:none;stroke-dashoffset:0;stroke-opacity:1"
       d="m 441.25383,701.56956 c -2.50013,-0.45775 -9.71602,-1.57183 -16.03531,-2.47572 c -6.3193,-0.90391 -12.22869,-2.05034 -13.13199,-2.54764 c -0.9033,-0.4973 -4.82434,-1.78818 -8.71342,-2.86864 c -16.10672,-4.4747 -31.49333,-11.61591 -47.02254,-21.82402 c -30.63766,-20.13964 -57.42191,-53.30398 -69.363,-85.8855 c -7.43801,-20.29475 -12.23287,-49.96507 -9.53161,-58.98107 c 1.21444,-4.05344 1.35234,-4.15346 5.72626,-4.15346 c 5.70563,0 7.36377,2.30461 9.7572,13.56125 c 0.9539,4.48636 2.69085,12.65624 3.85987,18.15526 c 1.16903,5.49903 2.7843,11.27221 3.5895,12.82928 c 0.80519,1.55708 1.46399,3.34564 1.46399,3.97459 c 0,0.62895 1.40528,4.40171 3.12286,8.38392 c 10.03617,23.26897 19.62288,37.62022 36.24234,54.25458 c 14.53824,14.55129 14.98064,14.92698 26.95402,22.88968 c 22.24066,14.79076 42.03348,21.59914 74.59706,25.66002 c 10.06125,1.25471 35.39534,0.65022 43.43656,-1.03642 c 2.77792,-0.58267 8.91173,-1.78405 13.63071,-2.66974 c 4.71897,-0.88569 9.03737,-1.96302 9.59645,-2.39407 c 0.55907,-0.43105 3.24678,-1.32835 5.97268,-1.99399 c 7.53117,-1.83906 32.12571,-14.243 38.31768,-19.32504 c 0.64506,-0.52943 3.90026,-2.96606 7.23376,-5.41472 c 12.74847,-9.36453 26.67733,-24.65774 37.35286,-41.01163 c 5.49804,-8.42245 14.78058,-27.46631 16.76704,-34.39886 c 0.70792,-2.47061 1.6691,-5.00158 2.13595,-5.62438 c 0.91167,-1.21619 3.84643,-13.29584 6.91135,-28.44737 c 2.06912,-10.22882 4.56155,-14.78492 8.64941,-15.81091 c 6.24006,-1.56615 11.00539,5.97636 10.16951,16.09622 c -1.50931,18.27287 -10.63204,47.49438 -20.18317,64.64976 c -4.29789,7.7197 -10.66475,17.59342 -12.37615,19.1929 c -0.59446,0.55558 -1.88265,2.30242 -2.86266,3.88187 c -2.70754,4.36365 -23.42179,25.43226 -31.41185,31.94922 c -6.46526,5.27327 -19.70598,14.58375 -25.80447,18.1449 c -4.38084,2.55816 -19.62624,10.13858 -20.42102,10.1539 c -0.42274,0.008 -2.69558,0.87914 -5.05076,1.93557 c -7.22522,3.24089 -20.48326,7.05248 -30.29647,8.70999 c -5.13755,0.86776 -11.8033,2.01281 -14.81278,2.54457 c -6.49845,1.14821 -32.00665,1.07905 -38.46986,-0.1043 z"
       id="path4163"
       inkscape:connector-curvature="0" />
  </g>
</svg>
